<?xml version="1.0" encoding="utf-8"?>
<!-- Generator: Adobe Illustrator 21.1.0, SVG Export Plug-In . SVG Version: 6.00 Build 0)  -->
<svg version="1.1" id="Layer_1" xmlns="http://www.w3.org/2000/svg" xmlns:xlink="http://www.w3.org/1999/xlink" x="0px" y="0px"
	 viewBox="0 0 20 20" style="enable-background:new 0 0 20 20;" xml:space="preserve">
<style type="text/css">
	.st0{fill:#FFFFFF;}
	.st1{fill:#FA9A3A;}
	.st2{fill:#AD262D;}
	.st3{fill:#FACD66;}
</style>
<g>
	<g>
		<circle class="st0" cx="10" cy="10" r="9.4"/>
		<path class="st1" d="M10,20C4.5,20,0,15.5,0,10S4.5,0,10,0s10,4.5,10,10S15.5,20,10,20z M10,1.2c-4.9,0-8.8,3.9-8.8,8.8
			s3.9,8.8,8.8,8.8s8.8-3.9,8.8-8.8S14.9,1.2,10,1.2z"/>
	</g>
	<g>
		<circle class="st2" cx="10.1" cy="9.9" r="6.2"/>
		<path class="st2" d="M10.1,16.4c-3.6,0-6.5-2.9-6.5-6.5s2.9-6.5,6.5-6.5s6.5,2.9,6.5,6.5S13.7,16.4,10.1,16.4z M10.1,3.9
			c-3.3,0-5.9,2.7-5.9,5.9s2.7,5.9,5.9,5.9s5.9-2.7,5.9-5.9S13.4,3.9,10.1,3.9z"/>
	</g>
	<g>
		<path class="st3" d="M6.8,8.7c0,0.1,0,0.5-0.1,0.6s-0.1,0.3,0,0.4C6.9,9.7,7,9.9,7,9.9l0.1,0l2.1,0.7H10h0.8L13,9.8l0.1,0.2
			c0,0,0.1-0.2,0.2-0.3s0.1-0.3,0-0.4c0-0.1-0.1-0.5-0.1-0.6c0-0.1,0.1-1,0.1-1.3c0-0.3,0-1.6,0-1.6S12.8,5.2,12.5,5
			s-1.1-0.4-1.1-0.4s-0.2,1-0.2,1.1c0,0.1-0.1,0.7-0.2,1C10.9,7.1,10.7,7,10.7,7H10H9.4c0,0-0.2,0.1-0.3-0.2C9,6.5,8.9,5.8,8.9,5.7
			c0-0.1-0.2-1.1-0.2-1.1S7.9,4.8,7.6,5C7.2,5.2,6.7,5.7,6.7,5.8c0,0-0.1,1.3,0,1.6C6.7,7.7,6.8,8.6,6.8,8.7z"/>
		<path class="st3" d="M13.6,10.1c0,0-0.1-0.4-0.1-0.4c0,0-0.6,0.6-0.7,0.7c-0.1,0-0.4,0.1-0.7,0.1c-0.3,0-0.8,0-1.1-0.1
			c-0.1,0-0.1,0.1-0.1,0.1c0,0,0,0.1-0.1,0.1c-0.2,0-0.8,0-0.8,0s-0.6,0-0.8,0c-0.2,0-0.1-0.1-0.1-0.1c0,0,0,0-0.1,0
			c-0.3,0.1-0.8,0.1-1.1,0.1c-0.3,0-0.6-0.1-0.7-0.2c-0.1,0-0.7-0.7-0.7-0.7c0,0-0.1,0.4-0.1,0.4c0,0-0.1,0.4-0.1,0.5
			c0,0,0.1,0.2,0.1,0.3c0,0.1,0.5,0.9,0.7,1.1c0.1,0.2,0.5,0.8,0.6,1c0.1,0.2,0.1,0.6,0.1,0.6c0,0.1,0,0.1,0.1,0.2
			c0.1,0.1,0.3,0.3,0.3,0.3c0,0,0.1,0.1,0.2-0.1c0-0.2,0.2,0,0.2,0H10h1.3c0,0,0.2-0.2,0.2,0c0,0.2,0.1,0.1,0.2,0.2
			c0.1,0,0.3-0.2,0.3-0.3c0.1-0.1,0.1-0.2,0.1-0.3s0-0.5,0.1-0.7c0.1-0.2,0.5-0.9,0.6-1c0.1-0.2,0.7-1,0.7-1.1
			c0-0.1,0.1-0.3,0.1-0.3C13.6,10.6,13.6,10.1,13.6,10.1z"/>
		<path class="st3" d="M11.7,14.5c0,0-0.2-0.2-0.3-0.3c-0.1-0.1-0.2-0.1-0.3-0.1c-0.2,0-1,0-1,0s-0.9,0-1,0c-0.2,0-0.3,0-0.3,0.1
			c-0.1,0.1-0.3,0.3-0.3,0.3l-0.5-0.6l-0.2,0.7l0.6,0.6c0,0,0.5-0.4,0.6-0.4c0.1,0,0.5-0.1,0.6-0.1c0.1-0.2,0.3-0.2,0.3-0.2l0.2,0
			l0.2,0c0,0,0.2,0,0.3,0.2c0.1,0,0.6,0,0.6,0.1c0.1,0,0.6,0.4,0.6,0.4l0.6-0.6l-0.2-0.7L11.7,14.5z"/>
	</g>
</g>
</svg>
