<?xml version="1.0" encoding="utf-8"?>
<!-- Generator: Adobe Illustrator 21.1.0, SVG Export Plug-In . SVG Version: 6.00 Build 0)  -->
<svg version="1.1" id="Layer_1" xmlns="http://www.w3.org/2000/svg" xmlns:xlink="http://www.w3.org/1999/xlink" x="0px" y="0px"
	 viewBox="0 0 20 20" style="enable-background:new 0 0 20 20;" xml:space="preserve">
<style type="text/css">
	.st0{fill:#FFFFFF;}
	.st1{fill:#AD262D;}
	.st2{fill:#6B6B6B;}
</style>
<g>
	<g>
		<circle class="st0" cx="10" cy="10" r="9.4"/>
		<path class="st1" d="M10,20C4.5,20,0,15.5,0,10S4.5,0,10,0s10,4.5,10,10S15.5,20,10,20z M10,1.2c-4.9,0-8.8,3.9-8.8,8.8
			s3.9,8.8,8.8,8.8s8.8-3.9,8.8-8.8S14.9,1.2,10,1.2z"/>
	</g>
	<g>
		<polygon class="st2" points="6.4,14 10.2,14.6 10.7,13.4 6.9,12.8 		"/>
		<polygon class="st2" points="7,12.6 10.8,13.2 11.3,12 7.5,11.4 		"/>
		<polygon class="st2" points="7.6,11.1 11.4,11.7 11.9,10.5 8.1,9.9 		"/>
		<polygon class="st2" points="5.8,15.5 9.6,16.1 10.1,14.9 6.3,14.3 		"/>
		<polygon class="st2" points="5.4,16.6 8.7,18.1 9.5,16.3 5.7,15.7 		"/>
		<polygon class="st2" points="6.1,7.1 8.2,2.4 7.9,2.2 7.1,2.6 5.6,6.1 6.1,7.1 		"/>
		<polygon class="st2" points="17.4,6.6 17.2,6.5 15.1,11.2 15.2,11.2 16.3,10.8 17.9,7.2 		"/>
		<polygon class="st2" points="13.7,5.1 13.7,4.4 11.5,3.3 11.1,3.7 8.5,2.5 6.5,7.3 6.5,7.3 8.8,8.4 8.2,9.7 12,10.3 12.2,9.8 
			14.8,11 16.7,6.4 		"/>
	</g>
</g>
</svg>
