<?xml version="1.0" encoding="utf-8"?>
<!-- Generator: Adobe Illustrator 21.1.0, SVG Export Plug-In . SVG Version: 6.00 Build 0)  -->
<svg version="1.1" id="Layer_1" xmlns="http://www.w3.org/2000/svg" xmlns:xlink="http://www.w3.org/1999/xlink" x="0px" y="0px"
	 viewBox="0 0 20 20" style="enable-background:new 0 0 20 20;" xml:space="preserve">
<style type="text/css">
	.st0{fill:#FFFFFF;}
	.st1{fill:#1B931B;}
</style>
<g>
	<g>
		<circle class="st0" cx="10" cy="10" r="9.4"/>
		<path class="st1" d="M10,20C4.5,20,0,15.5,0,10S4.5,0,10,0s10,4.5,10,10S15.5,20,10,20z M10,1.2c-4.9,0-8.8,3.9-8.8,8.8
			s3.9,8.8,8.8,8.8s8.8-3.9,8.8-8.8S14.9,1.2,10,1.2z"/>
	</g>
	<g>
		<path class="st1" d="M8.6,16.5c-0.1,0-0.4-0.3-0.6-0.5c-0.2-0.2,0-0.8,0-0.9c0-0.1,0.1-0.5,0-0.5c0-0.1,0.1-0.2,0.1-0.2
			c0.1,0,0.3-0.3,0.3-0.4c0-0.1-0.2-0.7-0.3-0.8c-0.1-0.1,0-0.9,0-1.1c0-0.2,0.1-0.7,0.1-0.7c0,0-0.4,0.2-0.5,0.2
			c-0.1,0-0.6,0.2-0.7,0.1c-0.1-0.1,0.2-0.2,0.3-0.2c0,0,0.3-0.2,0.6-0.3c0.2-0.2,0.5-0.7,0.5-0.8c0-0.1-0.1,0-0.3,0.2
			c-0.2,0.2-0.3,0.2-0.3,0.2c0.1-0.1,0.1-0.3,0.2-0.7C8.2,9.5,8.1,9.3,8,9.3c-0.1,0-0.1,0-0.3,0.3C7.6,9.8,7.3,10,7.3,10
			c0,0,0.1-0.3,0.3-0.6c0.2-0.3,0.2-1.1,0.2-1.2c0,0,0.1-0.1,0.1-0.2c0-0.2-0.2-0.3-0.3-0.3C7.5,7.6,7.3,7.4,7,7.1
			c-0.4-0.4-0.6-0.8-0.7-1c0.1,0.1,0.2,0.2,0.3,0.4C6.8,6.6,7,6.7,7,6.7s0-0.1,0-0.2c0-0.1-0.2-0.8-0.3-0.9c0-0.1,0.1-0.5,0.1-0.3
			s0.4,0.8,0.6,1.2C7.7,7,8,7,8.1,6.9c0.1-0.1,0.1-0.1,0.1-0.3c0-0.2,0.6-0.5,0.9-0.6c0.2-0.1,0.2,0,0.1,0.2
			C8.7,6.5,8.3,7.4,8.2,7.7c0,0.3-0.1,1.1,0.6,1.9c0.7,0.7,1.4,0.7,2,0.7c0.6-0.3,0.4-0.6,0.3-0.6c0,0-0.1,0-0.1-0.1
			c0-0.1,0.1-0.3,0.1-0.4c0-0.1,0-1.8,0-1.9c0-0.1,0-0.6-0.1-0.7c0,0-0.2-0.2-0.2-0.3s0.5-0.6,0.5-0.6s0.2-1-0.6-1.7
			c-0.7-0.7-1.2-0.6-1.3-0.6c-0.1,0-0.7,0.1-0.9,0.1S7.6,3.3,7,3.3c-0.6,0-1.2,0.3-1.2,0.4c0,0.1-0.2,0.4-0.2,0.5
			C5.6,4.3,5.1,4.8,5.1,4.9C5,5,4.9,5.3,4.9,5.4c0,0.1-0.3,0.5-0.4,0.6S4.2,6.4,3.8,6.9s0,1.9,0.1,1.9s0.6,0.4,0.6,0.4
			c0,0,0,0.7,0,0.8s-0.1,0.3-0.2,0.3c-0.1,0-0.1-0.3-0.1-0.3c0-0.1-0.1-0.2-0.2-0.1c0,0.1,0,0.5,0.1,0.8c0.1,0.3,0.6,0.5,0.7,0.5
			c0.1,0,0.9,0.2,1.2,0.4c-0.3,0-1-0.1-1.2,0c-0.3,0.1-0.1,0.3,0,0.5c0.2,0.2,0.8,0.1,1.2,0.2c0.4,0.1,0.4,0.2,0.4,0.2
			c0,0-0.3,0-0.6,0c-0.3,0-1,0.4-1,0.4c0,0-0.1,0.3-0.2,0.1c-0.1-0.2-0.3-0.4-0.6-0.6c-0.2-0.2-0.3-0.1-0.4-0.1c0,0.1,0,0.7,0,0.9
			s0.1,0.5,0.2,0.7c0.1,0.2,0.2,0.4,0.3,0.4c0,0,0-0.3,0-0.4c0-0.1,0-0.2,0.1-0.1c0,0,0.1,0.2,0.1,0.3c0,0.1,0.1,0.5,0.1,0.6
			c0,0.1,0.1,0.3,0.2,0.5c0.1,0.1,0.1-0.2,0.1-0.3c0-0.1,0-0.2,0-0.3c0-0.1,0.1-0.1,0.1-0.1c0,0,0,0.2,0,0.2c0,0.1,0.1,0.2,0.1,0.3
			S5,15.2,5,15.3c0,0.1,0.3,0.3,0.4,0.3c0.1,0,0.1-0.4,0-0.5c0-0.1,0-0.2,0-0.3c0,0,0.1-0.1,0.1-0.2c0,0,0-0.1,0.1-0.1
			s0.1,0.2,0.1,0.3c0,0.1,0.1,0.4,0.1,0.5c0,0.1,0.1,0.4,0.1,0.7c0,0.3,0.3,0.3,0.4,0.3c0-0.1,0-0.5,0-0.6c0-0.1,0-0.3,0-0.3
			c0-0.1,0-0.2,0.1-0.1c0.1,0,0.1,0.5,0.1,0.7c0,0.2,0.2,0.6,0.4,0.6c0.1,0,0.1-0.2,0-0.4c-0.1-0.2-0.1-0.5,0-0.5
			c0.1,0,0.1,0.1,0.1,0.2c0,0.1,0.1,0.3,0.1,0.5c0.1,0.2,0.2,0.2,0.3,0.2c0,0-0.1-0.2,0-0.2c0.1,0,0.2,0.1,0.3,0.3
			c0.1,0.1,0.4,0.2,0.6,0.2C8.4,16.7,9,16.7,9,16.7C9,16.6,8.7,16.5,8.6,16.5z"/>
		<path class="st1" d="M11.7,6.6c0,0.2-0.1,0.5-0.1,0.5c0,0,1.3,0.1,1.8,0c0.5-0.1,1-0.2,1.1-0.3s0-0.1-0.2-0.2c0,0,0-0.1,0-0.1
			s0-0.6,0-0.7c0-0.1-0.1-0.4,0-0.5c0-0.1,0.1,0.1,0.2,0.3c0,0.2,0.1,0.8,0.3,0.8c0.2,0,0.4-1.1-0.4-2.1C14,4,14,4.1,13.9,4
			c-0.1,0-1,0-1.2,0c-0.2,0-0.3,0.1-0.4,0.1s-0.8-0.1-1,0.1c0,0,0.2,1.2,0.3,1.4C11.7,5.8,11.7,6.4,11.7,6.6z"/>
		<path class="st1" d="M16.1,7.4c-0.1,0-0.2,0.2-0.2,0.2s0,0.3-0.1,0.3s-0.1,0-0.1-0.1c0-0.1,0-0.2,0-0.2c0-0.1,0-0.2-0.1-0.2
			c-0.1-0.1-0.4-0.3-1.3-0.1c-0.9,0.1-1.4,0.3-1.4,0.3s-0.3,0.1-0.4,0.1c-0.1,0-0.2,0.1-0.2,0.2c0,0.1,0,0.3-0.1,0.4
			c0,0-0.1,0.1-0.1-0.2c0-0.3,0-0.5-0.1-0.5c-0.1,0-0.3,0-0.5,0.3c-0.1,0.3-0.1,0.9-0.1,1s0.1,0.8,0.1,0.9c0,0.1-0.1,0.4-0.5,0.5
			c-0.4,0.2-1.1,0.2-1.2,0.1c-0.1,0-0.6-0.2-0.7-0.2c-0.1-0.1-0.1-0.1-0.3-0.1c0,0-0.1-0.1-0.1,0.2c0,0.3,0,0.7,0.7,0.7
			c0.7,0,0.7-0.1,0.9-0.1c0.2,0,1.2,0,1.5,0c0.3,0,1.6,0,1.7,0c0.1,0,0.5,0,0.6,0s0.3-0.1,0.3-0.2c0.1-0.1,0.3-0.9,0.4-0.9
			c0.1,0,0-0.1,0.1-0.1s0,0.8,0,0.8s0.2,0.2,0.4,0s0.2-0.2,0.3-0.1c0,0,0.1,0.2,0.2,0.1s0.4-0.6,0.4-0.7c0-0.1,0.3-1,0.3-1.1
			s0-1,0-1S16.2,7.4,16.1,7.4z"/>
		<path class="st1" d="M15.8,11.6c0,0-0.3-0.2-0.7-0.2c-0.4,0-0.9-0.1-1-0.1s-3.8,0-4.2,0c-0.4,0-0.4,0-0.4,0s-0.2-0.1-0.3,0
			c0,0-0.2,0.4-0.2,0.6c0,0.2,0,0.7,0,0.9c0,0.2,0.1,0.6,0.2,0.7c0.1,0.1,0.2,0.2,0.5,0.2s1,0.1,1.2-0.1s0.1-0.6,0.2-0.7
			c0-0.1,0-0.4,0.1-0.4c0.1,0,0.1,0.5,0.1,0.6c0,0.1,0,0.6,0,0.7c0.1,0.1,0.2,0,0.3,0c0,0,0.3,0,0.5,0s0.6,0,0.6,0
			c0.1,0,0.1,0.1,0.3,0.1s0.7,0,0.8,0.1s0.6,0.2,0.7,0.2s0.7,0,0.8-0.4c0-0.3-0.1-0.4-0.2-0.4c-0.1,0,0.1-0.9,0.2-1s0.1-0.5,0.2-0.5
			s0,0.9,0,1c0,0.1,0.2,0.3,0.3,0.2c0.1-0.1,0.2-0.5,0.2-0.7s0.1-0.5,0.1-0.5C15.7,12.1,15.8,11.6,15.8,11.6z"/>
		<path class="st1" d="M13.4,14.7c-0.1,0-0.3,0-0.5-0.1s-0.7-0.3-0.9-0.3c-0.2,0-0.7,0-0.8,0s-0.3,0-0.5,0c-0.2,0-0.3,0-0.3,0
			s-0.4-0.1-0.5-0.1c-0.1,0-0.1,0-0.6,0c-0.5,0-0.7,0.1-0.8,0.2c-0.1,0.1-0.2,0.3-0.2,0.5c0,0.1-0.1,0.5-0.1,0.5
			c0,0.1-0.1,0.3,0,0.3c0,0,0.1,0.1,0.1,0.1c0,0.1,0.2,0.1,0.2,0.1s0.1,0,0.1,0c0,0,0-0.1,0.1-0.2c0-0.1,0-0.3,0.1-0.5
			c0.1-0.2,0.1-0.4,0.2-0.5C9,14.6,9,14.7,9,14.7c0,0.1-0.1,0.4-0.2,0.5c-0.1,0.1,0,0.5,0,0.6c0,0.1,0.1,0.2,0.1,0.4
			s0.4,0.2,0.4,0.1c0-0.1,0-0.3,0-0.8c0-0.3,0.2-0.6,0.2-0.6c0,0.1,0,0.4,0,0.5c0,0.1,0.1,0.7,0.1,0.8c0,0.1,0.2,0.2,0.5,0.4
			c0.2,0.2,0.7,0.1,1,0.1c0.3,0,0.3,0,0.6,0.1c0.3,0.1,0.7,0,0.8-0.1c0.1-0.1,1.1-0.4,1.2-0.5c0.1-0.1,0.1-0.2,0.2-0.3
			c0-0.1,0-0.2,0.1-0.5c0.1-0.6-0.1-0.7-0.1-0.8C13.7,14.7,13.5,14.7,13.4,14.7z"/>
		<path class="st1" d="M3.6,14.5c-0.6-0.8-0.5-1.1-0.6-1.3c0-0.2,0.2-0.8,0.3-1.1c0-0.3,0-0.3-0.1-0.4c-0.1-0.1-0.4,0-0.5,0
			c-0.1,0-0.4,0.1-0.5,0s0.3-0.1,0.7-0.1c0.4,0,0.4-0.1,0.4-0.2S3.3,11.1,3.2,11c-0.2-0.1-0.7,0-1,0S1.8,11,1.8,11
			c0-0.1,0.3-0.1,0.8-0.2c0.5-0.1,0.9-0.4,1-0.4c0.1,0,0.2-0.2,0.1-0.4C3.6,9.8,3.2,8.5,3.2,8.3s0-0.6,0-0.7S3.5,7,3.5,6.9
			c0.1-0.1,0.2-0.4,0.2-0.4s0.5-0.8,0.5-0.9c0,0,0.1-0.1,0.1-0.2C4.4,5.3,3.1,5,3.1,5S2.9,4.8,2.5,5.1S2,6,1.6,6.6s-0.6,3-0.7,3.6
			c-0.2,0.6,0.5,3,0.6,3.3c0.1,0.4,1.7,2.2,1.9,2.8c0.3,0.6,0.9,0.6,0.9,0.6c0,0,0.1-0.1,0.2-0.1c0-0.1,0.6-0.2,0.9,0
			c0.3,0.2,0.8,0.2,0.8,0C5.9,16.6,5,16,4.9,15.9S4.3,15.3,3.6,14.5z"/>
	</g>
</g>
</svg>
