<?xml version="1.0" encoding="utf-8"?>
<!-- Generator: Adobe Illustrator 21.1.0, SVG Export Plug-In . SVG Version: 6.00 Build 0)  -->
<svg version="1.1" id="Layer_1" xmlns="http://www.w3.org/2000/svg" xmlns:xlink="http://www.w3.org/1999/xlink" x="0px" y="0px"
	 viewBox="0 0 20 20" style="enable-background:new 0 0 20 20;" xml:space="preserve">
<style type="text/css">
	.st0{fill:#FFFFFF;}
	.st1{fill:#0572B9;}
	.st2{fill:#870010;}
</style>
<g>
	<g>
		<circle class="st0" cx="10" cy="10" r="9.4"/>
		<path class="st1" d="M10,20C4.5,20,0,15.5,0,10S4.5,0,10,0s10,4.5,10,10S15.5,20,10,20z M10,1.2c-4.9,0-8.8,3.9-8.8,8.8
			s3.9,8.8,8.8,8.8s8.8-3.9,8.8-8.8S14.9,1.2,10,1.2z"/>
	</g>
	<g>
		<circle class="st0" cx="9.8" cy="9.9" r="7.5"/>
		<path class="st2" d="M10,2.5c-4.1,0-7.5,3.3-7.5,7.5s3.3,7.5,7.5,7.5s7.5-3.3,7.5-7.5S14.1,2.5,10,2.5z M10,15.8
			c-3.2,0-5.8-2.6-5.8-5.8S6.7,4.1,10,4.1s5.8,2.6,5.8,5.8S13.2,15.8,10,15.8z"/>
		<path class="st2" d="M10,5.4c-2.5,0-4.5,2-4.5,4.5c0,2.5,2,4.5,4.5,4.5c2.5,0,4.5-2,4.5-4.5C14.5,7.4,12.5,5.4,10,5.4z M10,13
			c-1.7,0-3-1.4-3-3s1.4-3,3-3c1.7,0,3,1.4,3,3S11.6,13,10,13z"/>
		<circle class="st1" cx="10" cy="9.9" r="3"/>
		<polygon class="st0" points="10.6,9 12.8,9 11,10.3 11.7,12.3 9.9,11 8.2,12.3 8.9,10.2 7.1,9 9.3,9 10,6.9 		"/>
	</g>
</g>
</svg>
