<?xml version="1.0" encoding="utf-8"?>
<!-- Generator: Adobe Illustrator 21.1.0, SVG Export Plug-In . SVG Version: 6.00 Build 0)  -->
<svg version="1.1" id="Layer_1" xmlns="http://www.w3.org/2000/svg" xmlns:xlink="http://www.w3.org/1999/xlink" x="0px" y="0px"
	 viewBox="0 0 20 20" style="enable-background:new 0 0 20 20;" xml:space="preserve">
<style type="text/css">
	.st0{fill:#040707;}
	.st1{fill:#ED1F24;}
	.st2{fill:#F8EF22;}
</style>
<g>
	<circle class="st0" cx="10" cy="10" r="9"/>
	<polygon class="st1" points="11.1,10 12.5,7.8 14.9,3.8 10,3.8 5.1,3.8 7.5,7.8 8.9,10 7.5,12.2 5.1,16.2 10,16.2 14.9,16.2 
		12.5,12.2 	"/>
	<path class="st2" d="M10,20C4.5,20,0,15.5,0,10S4.5,0,10,0s10,4.5,10,10S15.5,20,10,20z M10,1.2c-4.9,0-8.8,3.9-8.8,8.8
		s3.9,8.8,8.8,8.8s8.8-3.9,8.8-8.8S14.9,1.2,10,1.2z"/>
</g>
</svg>
