<?xml version="1.0" encoding="utf-8"?>
<!-- Generator: Adobe Illustrator 21.1.0, SVG Export Plug-In . SVG Version: 6.00 Build 0)  -->
<svg version="1.1" id="Layer_1" xmlns="http://www.w3.org/2000/svg" xmlns:xlink="http://www.w3.org/1999/xlink" x="0px" y="0px"
	 viewBox="0 0 87 100" style="enable-background:new 0 0 87 100;" xml:space="preserve">
<style type="text/css">
	.st0{fill:#D33333;}
</style>
<g>
	<polygon class="st0" points="49.1,80.7 63.6,80.7 63.6,66.8 49.1,78.7 	"/>
	<polygon class="st0" points="49.1,56.9 38.1,56.9 48.8,32.9 48.8,49.1 64,63.7 63.3,0.2 49.2,0.2 0.9,100.2 18.7,100.2 31.7,71.3 
		49.1,71.3 49.1,77.2 63.6,65.1 49.1,50.5 	"/>
	<path class="st0" d="M43.5,12C19.4,12-0.1,31.5-0.1,55.6c0,9.6,3.1,18.5,8.4,25.7l5.2-10.7c-2.3-4.5-3.5-9.6-3.5-15
		C9.9,37,25,22,43.5,22s33.6,15,33.6,33.6S62,89.2,43.5,89.2c-6,0-11.6-1.6-16.4-4.3l-4.2,9.2c6.1,3.3,13.2,5.2,20.6,5.2
		c24.1,0,43.6-19.5,43.6-43.6S67.6,12,43.5,12z"/>
</g>
</svg>
